<svg width="70" height="70" viewBox="0 0 70 70" fill="none" xmlns="http://www.w3.org/2000/svg">
<path d="M14.5834 44.0854V17.5C14.5834 15.5964 15.1307 14.0661 16.2255 12.9092C17.3182 11.7522 18.7999 10.8656 20.6705 10.2492C22.5391 9.63472 24.712 9.23125 27.1892 9.03875C29.6664 8.84625 32.27 8.75 35 8.75C37.835 8.75 40.4873 8.84625 42.9567 9.03875C45.4261 9.23319 47.5874 9.63375 49.4405 10.2404C51.2935 10.851 52.7528 11.7376 53.8184 12.9004C54.8839 14.0632 55.4167 15.5964 55.4167 17.5V44.0854C55.4167 46.4304 54.6 48.4196 52.9667 50.0529C51.3353 51.6843 49.3471 52.5 47.0021 52.5L51.3771 56.875V58.3333H48.9096L43.0763 52.5H26.9238L21.0905 58.3333H18.623V56.875L22.998 52.5C20.653 52.5 18.6638 51.6833 17.0305 50.05C15.3991 48.4206 14.5834 46.4333 14.5834 44.0883M17.5 32.0833H33.5417V19.0692H17.5V32.0833ZM36.4584 32.0833H52.5V19.0692H36.4584V32.0833ZM24.78 45.5437C25.7134 45.5437 26.4911 45.2385 27.1134 44.6279C27.7356 44.0154 28.0467 43.2406 28.0467 42.3033C28.0467 41.3661 27.7405 40.5883 27.128 39.97C26.5155 39.3478 25.7406 39.0367 24.8034 39.0367C23.8661 39.0367 23.0884 39.3429 22.47 39.9554C21.8478 40.5679 21.5367 41.3428 21.5367 42.28C21.5367 43.2172 21.843 43.995 22.4555 44.6133C23.068 45.2356 23.8428 45.5467 24.78 45.5467M45.1967 45.5467C46.13 45.5467 46.9078 45.2404 47.53 44.6279C48.1523 44.0154 48.4634 43.2406 48.4634 42.3033C48.4634 41.3661 48.1571 40.5883 47.5446 39.97C46.9321 39.3478 46.1573 39.0367 45.22 39.0367C44.2828 39.0367 43.505 39.3429 42.8867 39.9554C42.2645 40.5679 41.9534 41.3428 41.9534 42.28C41.9534 43.2172 42.2596 43.995 42.8721 44.6133C43.4846 45.2356 44.2595 45.5467 45.1967 45.5467Z" fill="black"/>
</svg>
